<?xml version="1.0" encoding="UTF-8" standalone="no"?>
<!DOCTYPE svg PUBLIC "-//W3C//DTD SVG 1.1//EN" "http://www.w3.org/Graphics/SVG/1.1/DTD/svg11.dtd">
<svg width="100%" height="100%" viewBox="0 0 427 427" version="1.1" xmlns="http://www.w3.org/2000/svg" xmlns:xlink="http://www.w3.org/1999/xlink" xml:space="preserve" xmlns:serif="http://www.serif.com/" style="fill-rule:evenodd;clip-rule:evenodd;stroke-linejoin:round;stroke-miterlimit:2;">
    <path d="M272.398,154.703C266.875,154.703 262.398,159.179 262.398,164.703L262.398,353.702C262.398,359.222 266.875,363.702 272.398,363.702C277.922,363.702 282.398,359.222 282.398,353.702L282.398,164.703C282.398,159.179 277.922,154.703 272.398,154.703Z" style="fill:rgb(255,0,0);fill-rule:nonzero;"/>
    <path d="M154.399,154.703C148.875,154.703 144.399,159.179 144.399,164.703L144.399,353.702C144.399,359.222 148.875,363.702 154.399,363.702C159.922,363.702 164.399,359.222 164.399,353.702L164.399,164.703C164.399,159.179 159.922,154.703 154.399,154.703Z" style="fill:rgb(255,0,0);fill-rule:nonzero;"/>
    <path d="M68.399,127.121L68.399,373.499C68.399,388.061 73.739,401.737 83.067,411.55C92.352,421.389 105.274,426.975 118.797,426.999L308,426.999C321.527,426.975 334.449,421.389 343.73,411.55C353.058,401.737 358.398,388.061 358.398,373.499L358.398,127.121C376.941,122.199 388.956,104.285 386.476,85.258C383.992,66.234 367.785,52.004 348.597,52L297.398,52L297.398,39.5C297.457,28.988 293.301,18.894 285.859,11.469C278.418,4.047 268.308,-0.086 257.797,0L169,0C158.488,-0.086 148.379,4.047 140.938,11.469C133.496,18.894 129.34,28.988 129.399,39.5L129.399,52L78.2,52C59.012,52.004 42.805,66.234 40.321,85.258C37.84,104.285 49.856,122.199 68.399,127.121ZM308,406.999L118.797,406.999C101.7,406.999 88.399,392.311 88.399,373.499L88.399,128L338.398,128L338.398,373.499C338.398,392.311 325.097,406.999 308,406.999ZM149.399,39.5C149.332,34.293 151.379,29.281 155.074,25.605C158.766,21.93 163.789,19.91 169,20L257.797,20C263.008,19.91 268.031,21.93 271.722,25.605C275.418,29.277 277.465,34.293 277.398,39.5L277.398,52L149.399,52L149.399,39.5ZM78.2,72L348.597,72C358.539,72 366.597,80.058 366.597,90C366.597,99.941 358.539,108 348.597,108L78.2,108C68.258,108 60.2,99.941 60.2,90C60.2,80.058 68.258,72 78.2,72Z" style="fill:rgb(255,0,0);fill-rule:nonzero;"/>
    <path d="M213.398,154.703C207.875,154.703 203.398,159.179 203.398,164.703L203.398,353.702C203.398,359.222 207.875,363.702 213.398,363.702C218.922,363.702 223.398,359.222 223.398,353.702L223.398,164.703C223.398,159.179 218.922,154.703 213.398,154.703Z" style="fill:rgb(255,0,0);fill-rule:nonzero;"/>
</svg>
