<?xml version="1.0" encoding="UTF-8" standalone="no"?>
<!DOCTYPE svg PUBLIC "-//W3C//DTD SVG 1.1//EN" "http://www.w3.org/Graphics/SVG/1.1/DTD/svg11.dtd">
<svg width="100%" height="100%" viewBox="0 0 512 512" version="1.1" xmlns="http://www.w3.org/2000/svg" xmlns:xlink="http://www.w3.org/1999/xlink" xml:space="preserve" xmlns:serif="http://www.serif.com/" style="fill-rule:evenodd;clip-rule:evenodd;stroke-linejoin:round;stroke-miterlimit:2;">
    <g>
        <g>
            <path d="M407,182L332,182L332,15C332,6.71 325.29,0 317,0L195,0C186.71,0 180,6.71 180,15L180,182L105,182C92.32,182 85.31,196.84 93.48,206.61L245.48,386.61C251.46,393.79 262.53,393.79 268.51,386.61L418.51,206.61C426.68,196.84 419.68,182 407,182Z" style="fill:white;fill-rule:nonzero;"/>
        </g>
    </g>
    <g>
        <g>
            <path d="M497,302L437,302C428.71,302 422,308.71 422,317L422,422L90,422L90,317C90,308.71 83.29,302 75,302L15,302C6.71,302 0,308.71 0,317L0,467C0,491.82 20.18,512 45,512L467,512C491.81,512 512,491.82 512,467L512,317C512,308.71 505.29,302 497,302Z" style="fill:white;fill-rule:nonzero;"/>
        </g>
    </g>
</svg>
