<?xml version="1.0" encoding="UTF-8"?>
<svg enable-background="new 0 0 330 330" version="1.1" viewBox="0 0 330 330" xml:space="preserve" xmlns="http://www.w3.org/2000/svg">
<style type="text/css">
	.st0{fill:#FFFFFF;}
</style>

	<path class="st0" d="m105.6 105.6 44.4-44.4v183.8c0 8.3 6.7 15 15 15s15-6.7 15-15v-183.8l44.4 44.4c2.9 2.9 6.8 4.4 10.6 4.4s7.7-1.5 10.6-4.4c5.9-5.9 5.9-15.4 0-21.2l-70-70c-0.4-0.4-0.7-0.7-1.1-1-0.2-0.1-0.3-0.3-0.5-0.4-0.2-0.2-0.4-0.3-0.7-0.5-0.2-0.1-0.4-0.3-0.6-0.4s-0.4-0.3-0.6-0.4-0.4-0.2-0.7-0.3c-0.2-0.1-0.4-0.2-0.7-0.3-0.2-0.1-0.4-0.2-0.6-0.2-0.2-0.1-0.5-0.2-0.7-0.3s-0.4-0.1-0.7-0.2-0.5-0.1-0.8-0.2c-0.3 0-0.5-0.1-0.8-0.1-0.2 0-0.5-0.1-0.7-0.1-0.5 0-0.9-0.1-1.4-0.1h-0.1-0.1c-0.5 0-0.9 0-1.4 0.1-0.2 0-0.5 0.1-0.7 0.1-0.3 0-0.5 0.1-0.8 0.1-0.3 0.1-0.5 0.1-0.7 0.2s-0.5 0.1-0.7 0.2-0.5 0.2-0.7 0.2c-0.2 0.1-0.5 0.2-0.7 0.2l-0.6 0.3c-0.2 0.1-0.5 0.2-0.7 0.3s-0.4 0.2-0.6 0.4c-0.2 0.1-0.4 0.3-0.7 0.4-0.2 0.1-0.4 0.3-0.6 0.5-0.2 0.1-0.4 0.3-0.5 0.4-0.4 0.3-0.7 0.6-1 0.9h-0.1l-70 70c-5.9 5.9-5.9 15.4 0 21.2 5.9 6.1 15.4 6.1 21.3 0.2z"/>
	<path class="st0" d="m315 160c-8.3 0-15 6.7-15 15v115h-270v-115c0-8.3-6.7-15-15-15s-15 6.7-15 15v130c0 8.3 6.7 15 15 15h300c8.3 0 15-6.7 15-15v-130c0-8.3-6.7-15-15-15z"/>

</svg>
